name ./resultDataOpenSim/trcMotMarkerGrf/sub10/grf-02-02.mot
datacolumns 19
datarows 12
range 1.47200000 1.51600000
endheader

                time	     ground_force_vx	     ground_force_vy	     ground_force_vz	     ground_force_px	     ground_force_py	     ground_force_pz	   l_ground_force_vx	   l_ground_force_vy	   l_ground_force_vz	   l_ground_force_px	   l_ground_force_py	   l_ground_force_pz	     ground_torque_x	     ground_torque_y	     ground_torque_z	   l_ground_torque_x	   l_ground_torque_y	   l_ground_torque_z	
          1.47200000	        -16.12616770	        394.25004861	        -15.70481791	          0.81232048	          0.00000000	         -0.01410660	          0.00000000	          0.00000000	          0.00000000	          0.00000000	          0.00000000	          0.00000000	          0.00000000	          1.44755586	          0.00000000	          0.00000000	          0.00000000	          0.00000000	
          1.47600000	        -15.17742984	        397.73995112	        -15.90531762	          0.81368040	          0.00000000	         -0.01417783	          0.00000000	          0.00000000	          0.00000000	          0.00000000	          0.00000000	          0.00000000	          0.00000000	          1.62877599	          0.00000000	          0.00000000	          0.00000000	          0.00000000	
          1.48000000	        -13.09998007	        401.66334591	        -16.14090759	          0.81471429	          0.00000000	         -0.01427141	          0.00000000	          0.00000000	          0.00000000	          0.00000000	          0.00000000	          0.00000000	          0.00000000	          1.84452325	          0.00000000	          0.00000000	          0.00000000	          0.00000000	
          1.48400000	        -10.10237066	        406.02915202	        -16.32990363	          0.81547949	          0.00000000	         -0.01439867	          0.00000000	          0.00000000	          0.00000000	          0.00000000	          0.00000000	          0.00000000	          0.00000000	          2.08719419	          0.00000000	          0.00000000	          0.00000000	          0.00000000	
          1.48800000	         -6.67429165	        410.91038669	        -16.39458269	          0.81610338	          0.00000000	         -0.01456865	          0.00000000	          0.00000000	          0.00000000	          0.00000000	          0.00000000	          0.00000000	          0.00000000	          2.34562376	          0.00000000	          0.00000000	          0.00000000	          0.00000000	
          1.49200000	         -3.44184738	        416.40258423	        -16.28192778	          0.81673655	          0.00000000	         -0.01478378	          0.00000000	          0.00000000	          0.00000000	          0.00000000	          0.00000000	          0.00000000	          0.00000000	          2.60601782	          0.00000000	          0.00000000	          0.00000000	          0.00000000	
          1.49600000	         -0.97869040	        422.56304798	        -15.97372764	          0.81750613	          0.00000000	         -0.01503922	          0.00000000	          0.00000000	          0.00000000	          0.00000000	          0.00000000	          0.00000000	          0.00000000	          2.85348289	          0.00000000	          0.00000000	          0.00000000	          0.00000000	
          1.50000000	          0.36055436	        429.37400081	        -15.48346275	          0.81846713	          0.00000000	         -0.01532560	          0.00000000	          0.00000000	          0.00000000	          0.00000000	          0.00000000	          0.00000000	          0.00000000	          3.07480901	          0.00000000	          0.00000000	          0.00000000	          0.00000000	
          1.50400000	          0.52455117	        436.75049790	        -14.84495928	          0.81963381	          0.00000000	         -0.01563431	          0.00000000	          0.00000000	          0.00000000	          0.00000000	          0.00000000	          0.00000000	          0.00000000	          3.26197725	          0.00000000	          0.00000000	          0.00000000	          0.00000000	
          1.50800000	         -0.24242270	        444.57218301	        -14.10173613	          0.82097514	          0.00000000	         -0.01595013	          0.00000000	          0.00000000	          0.00000000	          0.00000000	          0.00000000	          0.00000000	          0.00000000	          3.41474935	          0.00000000	          0.00000000	          0.00000000	          0.00000000	
          1.51200000	         -1.47163467	        452.70598088	        -13.30642972	          0.82243333	          0.00000000	         -0.01625809	          0.00000000	          0.00000000	          0.00000000	          0.00000000	          0.00000000	          0.00000000	          0.00000000	          3.54073173	          0.00000000	          0.00000000	          0.00000000	          0.00000000	
          1.51600000	         -2.58474258	        461.01641728	        -12.52930476	          0.82392376	          0.00000000	         -0.01653923	          0.00000000	          0.00000000	          0.00000000	          0.00000000	          0.00000000	          0.00000000	          0.00000000	          3.65263066	          0.00000000	          0.00000000	          0.00000000	          0.00000000	
